# xmcd
# Track frame offsets:
# 150
# 16642
# 27215
# 39937
# 56912
# 67355
# 83380
# 96712
# 114867
# 130142
# 146890
# 162887
# 174432
# 189217
# 203477
# 214722
# 231505
# 245450
# 258782
# 271302
#
# Disc length: 3786 seconds
# Revision: 0
# Processed by: cddbd v1.5.2PL0 Copyright (c) Steve Scherf et al.
# Submitted via: VisiTrax 2.10.3.257 - For more info visit www.synapsa.com
#
DISCID=100ec814
DTITLE=Williams, Tony - Past and Present
DYEAR=1999
DGENRE=
TTITLE0=Where am I gonna Live
TTITLE1=Beautiful Smile
TTITLE2=Gonna Build a Mountain
TTITLE3=Almost persuaded
TTITLE4=I'll be your baby tonight
TTITLE5=Rose can I share a bed with you
TTITLE6=The one I sing my love songs to
TTITLE7=Nobody's Child
TTITLE8=Winter in America
TTITLE9=There's no limit
TTITLE10=Say you'll stay until tomorrow
TTITLE11=Don't it make my bright eyes blue
TTITLE12=Son of Hickory Holler's Tramp
TTITLE13=Rodeo Man
TTITLE14=Some Broken Hearts Never Mend
TTITLE15=Don't let me know
TTITLE16=Amanda
TTITLE17=There goes my everything
TTITLE18=I love my children
TTITLE19=Poor mans blues
EXTD=
EXTT0=
EXTT1=
EXTT2=
EXTT3=
EXTT4=
EXTT5=
EXTT6=
EXTT7=
EXTT8=
EXTT9=
EXTT10=
EXTT11=
EXTT12=
EXTT13=
EXTT14=
EXTT15=
EXTT16=
EXTT17=
EXTT18=
EXTT19=
PLAYORDER=
